# xmcd
#
# Track frame offsets: 
#        150
#        37528
#        125888
#        136040
#        147380
#        161731
#        176329
#        192045
#        209525
#        219294
#        237754
#        254480
#        274279
#        290692
#        304835
#        336969
#
# Disc length: 4660 seconds
#
# Revision: 0
# Processed by: cddbd v1.5.2PL0 Copyright (c) Steve Scherf et al.
# Submitted via: ExactAudioCopy v1.0b1
#
DISCID=f4123210
DTITLE=Richter - Szymanowski and Debussy ,CD12
DYEAR=2001
DGENRE=Classical
TTITLE0=Liszt: Harmonies poetiques et religieuses No. 9 Andante lagrim
TTITLE0=oso
TTITLE1=Franck: Prelude, choral et fugue
TTITLE2=Szymanowski: Mazurkas,op. 50-1
TTITLE3=Szymanowski: Mazurkas,op. 50-17
TTITLE4=Szymanowski: Mazurkas,op. 50-18
TTITLE5=Szymanowski: Mazurkas,op. 50-3
TTITLE6=No. 1 Danseuses de Delphes
TTITLE7=No. 2 Voiles
TTITLE8=No. 3 Le vent dans la plaine
TTITLE9=No. 4 Les sons et les parfums tournent dans l'air du soir
TTITLE10=No. 5 Les collines d'Anacapri 
TTITLE11=No. 6 Des pas sur la neige
TTITLE12=No. 7 Ce qu'a a vu le Vent d’Ouest
TTITLE13=No. 9 La serenade interrompue
TTITLE14=No. 10 La Cathedrale engloutie 
TTITLE15=No. 11 La danse de Puck
EXTD=
EXTT0=
EXTT1=
EXTT2=
EXTT3=
EXTT4=
EXTT5=
EXTT6=
EXTT7=
EXTT8=
EXTT9=
EXTT10=
EXTT11=
EXTT12=
EXTT13=
EXTT14=
EXTT15=
PLAYORDER=
